<?xml version="1.0" encoding="utf-8"?>
<!-- Generator: Adobe Illustrator 16.0.0, SVG Export Plug-In . SVG Version: 6.00 Build 0)  -->
<!DOCTYPE svg PUBLIC "-//W3C//DTD SVG 1.1//EN" "http://www.w3.org/Graphics/SVG/1.1/DTD/svg11.dtd">
<svg version="1.1" id="Ebene_1" xmlns="http://www.w3.org/2000/svg" xmlns:xlink="http://www.w3.org/1999/xlink" x="0px" y="0px"
	 width="80px" height="80px" viewBox="0 0 80 80" enable-background="new 0 0 80 80" xml:space="preserve">
<path fill="#0E0E0E" d="M18.692,39.507c0-9.735-0.833-10.017-4.198-1.411c-1.195,3.058-2.794,5.767-3.555,6.021
	c-0.756,0.25-2.513-2.72-3.898-6.6l-2.517-7.06l-0.78,8.686L2.964,47.83l-0.233-9.898C2.468,26.71,4.203,25.565,7.745,34.623
	c3.14,8.021,3.676,8.062,6.195,0.475c3.491-10.51,6.103-9.104,6.103,3.286c0,5.568-0.306,10.121-0.677,10.121
	C18.995,48.504,18.692,44.455,18.692,39.507z"/>
<path fill="#0E0E0E" d="M23.82,47.506c-1.457-1.461-1.042-19.343,0.449-19.343c0.761,0,1.351,3.823,1.351,8.773v8.771h4.721
	c2.597,0,4.723,0.605,4.723,1.35C35.064,48.545,25.253,48.939,23.82,47.506z"/>
<path fill="#0E0E0E" d="M36.903,45.703c-3.529-3.525-3.658-12.204-0.232-15.307c2.645-2.393,11.703-3.066,13.001-0.965
	c0.467,0.755-1.158,0.957-3.999,0.494c-3.507-0.568-5.495-0.132-7.452,1.639c-6.819,6.171,0.157,17.948,8.69,14.671
	c2.921-1.121,2.75-6.919-0.226-7.696c-1.777-0.462-1.61-0.655,0.675-0.772c2.583-0.132,3.035,0.527,3.035,4.421
	c0,2.93-0.767,4.873-2.134,5.398C44.184,49.148,39.586,48.389,36.903,45.703z"/>
<path fill="#0E0E0E" d="M72.114,72.186c-1.366-0.909-6.625-5.725-11.687-10.7l-9.202-9.049l-9.67-0.567l0.023-0.745l9.694-0.178
	l9.007,8.195c4.955,4.506,10.311,9.015,11.902,10.019l2.895,1.825l1.131-2.818c0.622-1.549,1.446-10.64,1.83-20.2l0.699-17.381
	l0.048,18.375c0.025,10.105-0.239,19.711-0.589,21.344C77.441,73.836,75.499,74.438,72.114,72.186z"/>
<path fill="#0E0E0E" d="M66.17,56.658c-0.008-2.049,0.432-3.725,0.978-3.725c1.266,0,1.266,4.002,0,5.959
	C66.432,60.001,66.182,59.429,66.17,56.658z"/>
<path fill="#0E0E0E" d="M52.869,49.091c-0.456-1.294-0.671-6.882-0.477-12.416c0.316-9.008,0.559-10.119,2.31-10.597
	c1.507-0.411,2.033-1.558,2.281-4.967c0.467-6.427,0.796-6.915,4.67-6.915c3.453,0,3.508-0.064,3.508-4.139
	c0-4.765,0.813-4.762,1.177,0.004c0.177,2.317,0.808,3.329,2.265,3.634c1.112,0.232,2.916,0.612,4.008,0.843
	c1.092,0.231-1.163,0.472-5.016,0.535c-3.97,0.066-7.519,0.631-8.194,1.308c-0.655,0.655-1.191,2.89-1.191,4.966v3.774l8.69,0.161
	l8.691,0.161l-9.151,0.597c-5.032,0.329-9.681,1.127-10.328,1.776c-0.688,0.686-1.438,5.873-1.794,12.403
	C53.887,48.066,53.45,50.735,52.869,49.091z"/>
<path fill="#0E0E0E" d="M66.24,43.547c-0.056-2.545,0.254-3.583,0.882-2.956c0.598,0.597,0.631,2.095,0.086,3.923
	C66.335,47.436,66.324,47.425,66.24,43.547z"/>
<polyline fill="#0E0E0E" points="41.579,51.124 41.549,51.869 4.333,51.496 "/>
</svg>
